<svg width="72" height="70" viewBox="0 0 72 70" fill="none" xmlns="http://www.w3.org/2000/svg">
<mask id="mask0_1_29" style="mask-type:luminance" maskUnits="userSpaceOnUse" x="11" y="8" width="29" height="53">
<rect x="11" y="8" width="29" height="53" fill="white"/>
</mask>
<g mask="url(#mask0_1_29)">
<path d="M38.1973 61C33.2395 61 28.683 59.8595 24.5278 57.5785C20.3727 55.2527 17.0675 52.0772 14.6121 48.0519C12.204 43.9819 11 39.4198 11 34.3658C11 29.4907 12.2513 25.0405 14.7538 21.0152C17.3035 16.9899 20.6796 13.8143 24.882 11.4886C29.1315 9.16287 33.6408 8 38.4098 8C41.715 8 44.3356 8.29072 46.2715 8.87215C48.2074 9.40886 50.4503 10.3705 53 11.757V14.2392C50.5919 12.6738 48.3491 11.5781 46.2715 10.9519C44.2411 10.281 41.6914 9.94557 38.6223 9.94557C33.9477 9.94557 29.6745 11.0861 25.8027 13.3671C21.9781 15.6034 18.9325 18.6224 16.6661 22.4241C14.4469 26.181 13.3373 30.2287 13.3373 34.5671C13.3373 38.9502 14.4705 43.0203 16.7369 46.7772C19.0034 50.5342 22.0017 53.5308 25.7319 55.7671C29.5093 57.9587 33.57 59.0544 37.914 59.0544C41.0304 59.0544 43.7454 58.719 46.059 58.0481C48.3727 57.3325 50.6863 56.2367 53 54.7608V57.243C50.7336 58.5401 48.3963 59.4793 45.9882 60.0608C43.6273 60.6869 41.0304 61 38.1973 61Z" fill="white"/>
</g>
<path d="M39 8H57.83V10.0493H41.31V38.8813H55.1V40.9307H41.31V58.9507H57.83V61H39V8Z" fill="white"/>
<rect x="1" y="1" width="70" height="68" stroke="white" stroke-width="0.4" stroke-linejoin="round"/>
</svg>
